<svg width="15" height="12" viewBox="0 0 15 12" fill="none" xmlns="http://www.w3.org/2000/svg">
<path d="M0.333984 5.77174C0.333984 5.45532 0.569113 5.19383 0.874176 5.15244L0.958984 5.14674L11.9457 5.14724L7.97649 1.19429C7.73189 0.950743 7.73104 0.555017 7.97459 0.310413C8.196 0.088047 8.54318 0.0671272 8.78824 0.248145L8.85847 0.30851L13.9001 5.32851C13.9324 5.36061 13.9604 5.39536 13.9842 5.43205C13.9909 5.4431 13.9977 5.45439 14.0042 5.46592C14.0101 5.4758 14.0155 5.48606 14.0206 5.49643C14.0277 5.51152 14.0346 5.52711 14.0408 5.54302C14.0459 5.55529 14.0501 5.56722 14.054 5.57924C14.0586 5.59415 14.0631 5.61004 14.0669 5.62618C14.0698 5.63744 14.0721 5.64828 14.074 5.65916C14.0768 5.67536 14.0792 5.69211 14.0809 5.70907C14.0823 5.722 14.0832 5.73481 14.0837 5.74764C14.0838 5.75542 14.084 5.76356 14.084 5.77174L14.0837 5.79595C14.0832 5.80821 14.0824 5.82047 14.0812 5.8327L14.084 5.77174C14.084 5.81118 14.0803 5.84976 14.0733 5.88718C14.0717 5.89611 14.0698 5.90529 14.0677 5.91442C14.0632 5.93324 14.0581 5.95135 14.0522 5.96912C14.0493 5.97794 14.0459 5.98737 14.0423 5.99673C14.035 6.01554 14.027 6.03346 14.0183 6.05093C14.0143 6.05914 14.0097 6.06773 14.005 6.07624C13.9971 6.09012 13.9891 6.10332 13.9806 6.11618C13.9746 6.12528 13.9679 6.13475 13.961 6.14407L13.9556 6.15127C13.9388 6.17327 13.9205 6.19412 13.9009 6.21368L13.9002 6.21426L8.85851 11.2351C8.61393 11.4787 8.2182 11.4778 7.97463 11.2333C7.7532 11.0109 7.73375 10.6637 7.9158 10.4194L7.97646 10.3494L11.944 6.39724L0.958984 6.39674C0.613806 6.39674 0.333984 6.11691 0.333984 5.77174Z" fill="white"/>
</svg>
