<svg width="28" height="27" viewBox="0 0 28 27" fill="none" xmlns="http://www.w3.org/2000/svg">
<path fill-rule="evenodd" clip-rule="evenodd" d="M3.89806 0.120735C3.79641 0.194521 3.67089 0.368869 3.61189 0.518076C3.51538 0.762125 3.50668 0.94766 3.50558 2.78554L3.50438 4.7872L3.18963 4.75075C3.01649 4.7307 2.35355 4.70675 1.71634 4.69745C0.614443 4.68142 0.55018 4.68702 0.402604 4.81209C0.317266 4.88443 0.19175 5.03747 0.12371 5.1523L0 5.36103L0.0142321 14.271L0.0284642 23.1809L0.143689 23.3584C0.385416 23.7307 0.500696 23.7637 1.87847 23.8542C5.76208 24.1093 7.14353 24.256 8.96348 24.6069C10.5446 24.9118 12.0223 25.3525 13.1674 25.8606C13.8869 26.1799 14.0998 26.2036 14.5185 26.0108C16.4845 25.106 18.9545 24.505 22.0882 24.1693C22.9565 24.0762 23.6981 24.0187 26.151 23.8545C27.5291 23.7622 27.6439 23.7294 27.8848 23.3584L28 23.1809V14.2339C28 5.29554 27.9999 5.28674 27.8871 5.11333C27.8251 5.01786 27.7063 4.88148 27.6232 4.8102C27.4809 4.68802 27.3879 4.67954 25.9981 4.662L24.5241 4.6434L24.5229 2.71364C24.5218 0.946654 24.5128 0.761434 24.4166 0.518076C24.2079 -0.00968021 23.8392 -0.100814 22.7036 0.0948403C20.8936 0.406642 19.182 1.01397 17.59 1.9094C16.3126 2.62784 15.3054 3.40279 14.4321 4.3392L14.0142 4.78733L13.59 4.33066C12.527 3.18633 11.1192 2.18487 9.45684 1.39051C7.97249 0.681173 5.90178 0.0939604 4.62652 0.0206766C4.13749 -0.00741763 4.05981 0.00320429 3.89806 0.120735ZM6.51403 2.29417C9.05265 3.00991 11.1046 4.22161 12.5775 5.87477L13.1935 6.56612L13.1933 14.7337L13.1932 22.9014L12.9879 22.6777C12.6776 22.3398 11.7942 21.5511 11.332 21.1995C9.74893 19.9951 7.91419 19.0356 6.17142 18.5005C5.7733 18.3783 5.38603 18.2568 5.31076 18.2306L5.17391 18.183L5.16001 10.089L5.14611 1.99494L5.45806 2.03969C5.62961 2.06426 6.1048 2.17884 6.51403 2.29417ZM22.8685 10.0963L22.8546 18.183L22.7177 18.2306C22.6424 18.2568 22.2552 18.3783 21.857 18.5005C19.4 19.2548 16.676 20.9255 15.0406 22.681L14.8353 22.9014V14.7418V6.58221L15.2869 6.04861C16.7407 4.33091 18.9523 3.00231 21.5408 2.29159C22.3886 2.0588 22.5118 2.03051 22.7316 2.01801L22.8824 2.00946L22.8685 10.0963ZM26.3852 14.2301V21.9254L26.1526 21.9586C26.0246 21.9768 25.3903 22.0227 24.743 22.0605C22.0266 22.219 19.5366 22.5348 17.8188 22.9387C17.548 23.0024 17.3191 23.0461 17.3102 23.0359C17.3014 23.0257 17.5722 22.8105 17.9121 22.5579C19.5517 21.3391 21.3678 20.5094 23.6103 19.9546C24.1083 19.8314 24.3795 19.6057 24.4677 19.2411C24.5038 19.0917 24.5236 16.8138 24.5238 12.7726L24.5241 6.5347H25.4546H26.3852V14.2301ZM3.08453 6.63809L3.50235 6.67863L3.51702 12.9814C3.53164 19.236 3.53262 19.2855 3.64462 19.4577C3.8448 19.7656 4.01093 19.8529 4.76337 20.0464C6.23492 20.4246 7.34371 20.8683 8.62246 21.5907C9.32328 21.9865 10.7679 22.9814 10.7186 23.0343C10.7098 23.0437 10.4051 22.9847 10.0416 22.9031C8.19922 22.4896 5.54187 22.1673 2.82014 22.0272C2.42876 22.007 2.00382 21.9759 1.8759 21.958L1.64326 21.9254V14.2615V6.59755H2.15501C2.43648 6.59755 2.85479 6.61578 3.08453 6.63809ZM7.61116 7.52686C7.40293 7.65928 7.17188 8.09088 7.17188 8.34744C7.17188 8.59507 7.3719 9.00875 7.55002 9.12955C7.6388 9.18982 7.94704 9.30773 8.23496 9.39157C8.79604 9.55498 9.2467 9.76522 9.77197 10.1085C10.34 10.4798 10.3692 10.4935 10.5931 10.4937C11.1829 10.4941 11.578 9.7184 11.3011 9.10365C11.1253 8.71335 9.91254 7.9731 8.89615 7.63584C8.19971 7.40468 7.84998 7.37507 7.61116 7.52686ZM19.3513 7.56784C18.3088 7.87901 17.0221 8.61568 16.7649 9.0486C16.4163 9.63506 16.8149 10.4941 17.4354 10.4937C17.6599 10.4935 17.6936 10.4776 18.2565 10.1069C18.727 9.7969 19.3565 9.50785 19.8643 9.36863C20.106 9.30232 20.3794 9.1968 20.4718 9.13407C20.6526 9.01145 20.8566 8.59966 20.8566 8.35737C20.8566 8.08384 20.649 7.69649 20.4249 7.55187C20.1587 7.3801 19.9709 7.38293 19.3513 7.56784ZM7.59567 12.8925C7.37715 13.0424 7.171 13.4381 7.17308 13.7038C7.17374 13.788 7.22164 13.9766 7.27955 14.123C7.40014 14.428 7.61083 14.5646 8.23929 14.7449C8.45742 14.8075 8.98795 15.0681 9.47091 15.3499C10.3871 15.8845 10.6076 15.9449 10.9347 15.7507C11.4155 15.4653 11.4933 14.6712 11.084 14.2279C10.8429 13.9669 9.57229 13.2485 8.92615 13.0079C8.20956 12.741 7.86082 12.7108 7.59567 12.8925ZM19.4334 12.8905C18.4583 13.1898 16.9845 14.0558 16.7861 14.4462C16.5647 14.8818 16.699 15.4828 17.0739 15.7342C17.398 15.9515 17.6329 15.8957 18.4496 15.4074C19.1557 14.9851 19.6229 14.772 20.1347 14.6387C20.2646 14.6049 20.4297 14.533 20.5015 14.4789C20.6525 14.3654 20.8566 13.9174 20.8566 13.6997C20.8566 13.4261 20.649 13.0388 20.4249 12.8942C20.1661 12.7272 19.968 12.7264 19.4334 12.8905Z" fill="#486140"/>
</svg>
