<svg width="36" height="36" viewBox="0 0 36 36" fill="none" xmlns="http://www.w3.org/2000/svg">
<rect width="36" height="36" rx="8" fill="url(#paint0_linear_17417_65178)"/>
<rect width="36" height="36" rx="8" fill="url(#paint1_linear_17417_65178)"/>
<rect width="36" height="36" rx="8" fill="url(#paint2_linear_17417_65178)"/>
<g clip-path="url(#clip0_17417_65178)">
<path d="M18 6.93338C21.6045 6.93338 22.032 6.94688 23.4563 7.01213C27.1147 7.17863 28.8236 8.9145 28.9901 12.546C29.0554 13.9691 29.0677 14.3966 29.0677 18.0011C29.0677 21.6068 29.0542 22.0331 28.9901 23.4563C28.8225 27.0844 27.1181 28.8236 23.4563 28.9901C22.032 29.0554 21.6068 29.0689 18 29.0689C14.3955 29.0689 13.968 29.0554 12.5449 28.9901C8.87738 28.8225 7.1775 27.0788 7.011 23.4551C6.94575 22.032 6.93225 21.6056 6.93225 18C6.93225 14.3955 6.94688 13.9691 7.011 12.5449C7.17863 8.9145 8.883 7.1775 12.5449 7.011C13.9691 6.94688 14.3955 6.93338 18 6.93338ZM18 4.5C14.3336 4.5 13.8746 4.51575 12.4346 4.581C7.53188 4.806 4.80713 7.52625 4.58213 12.4335C4.51575 13.8746 4.5 14.3336 4.5 18C4.5 21.6664 4.51575 22.1265 4.581 23.5665C4.806 28.4692 7.52625 31.194 12.4335 31.419C13.8746 31.4842 14.3336 31.5 18 31.5C21.6664 31.5 22.1265 31.4842 23.5665 31.419C28.4648 31.194 31.1963 28.4737 31.4179 23.5665C31.4842 22.1265 31.5 21.6664 31.5 18C31.5 14.3336 31.4842 13.8746 31.419 12.4346C31.1985 7.53637 28.4749 4.80713 23.5676 4.58213C22.1265 4.51575 21.6664 4.5 18 4.5V4.5ZM18 11.0677C14.1716 11.0677 11.0677 14.1716 11.0677 18C11.0677 21.8284 14.1716 24.9334 18 24.9334C21.8284 24.9334 24.9323 21.8295 24.9323 18C24.9323 14.1716 21.8284 11.0677 18 11.0677ZM18 22.5C15.5149 22.5 13.5 20.4862 13.5 18C13.5 15.5149 15.5149 13.5 18 13.5C20.4851 13.5 22.5 15.5149 22.5 18C22.5 20.4862 20.4851 22.5 18 22.5ZM25.2068 9.17438C24.3113 9.17438 23.5856 9.9 23.5856 10.7944C23.5856 11.6887 24.3113 12.4144 25.2068 12.4144C26.1011 12.4144 26.8256 11.6887 26.8256 10.7944C26.8256 9.9 26.1011 9.17438 25.2068 9.17438Z" fill="white"/>
</g>
<defs>
<linearGradient id="paint0_linear_17417_65178" x1="31.9219" y1="1.40625" x2="5.76563" y2="35.2969" gradientUnits="userSpaceOnUse">
<stop stop-color="#8940BF"/>
<stop offset="0.494792" stop-color="#E5365F"/>
<stop offset="0.63954" stop-color="#EC6937"/>
<stop offset="1" stop-color="#F9DB81"/>
</linearGradient>
<linearGradient id="paint1_linear_17417_65178" x1="18" y1="-3.09375" x2="31.6406" y2="45.7031" gradientUnits="userSpaceOnUse">
<stop stop-color="#4B64D3"/>
<stop offset="0.16707" stop-color="#B9328E"/>
<stop offset="0.315099" stop-color="#B9328E" stop-opacity="0"/>
</linearGradient>
<linearGradient id="paint2_linear_17417_65178" x1="36.7031" y1="26.0156" x2="24.1875" y2="23.4844" gradientUnits="userSpaceOnUse">
<stop stop-color="#DD3073"/>
<stop offset="1" stop-color="#DE2F6D" stop-opacity="0"/>
</linearGradient>
<clipPath id="clip0_17417_65178">
<rect width="27" height="27" fill="white" transform="translate(4.5 4.5)"/>
</clipPath>
</defs>
</svg>
