<svg width="26" height="28" viewBox="0 0 26 28" fill="none" xmlns="http://www.w3.org/2000/svg">
<path d="M8.93945 14.5852L13.8702 11.6848L18.8009 14.5852L17.6407 23.2865H9.80958L8.93945 14.5852Z" fill="#9EC06A"/>
<path fill-rule="evenodd" clip-rule="evenodd" d="M3.85507 0.176489C2.86496 0.424239 2.08835 1.15724 1.82716 2.09046C1.76483 2.31298 1.73976 2.69357 1.73976 3.41561V4.42853L1.48437 4.49209C0.596355 4.71313 0.596355 5.93351 1.48437 6.15455L1.73976 6.21811V7.06766V7.9172L1.48437 7.98076C0.596355 8.2018 0.596355 9.42218 1.48437 9.64322L1.73976 9.70678V10.5563V11.4059L1.48437 11.4694C0.596355 11.6905 0.596355 12.9109 1.48437 13.1319L1.73976 13.1955V14.045V14.8946L1.48437 14.9581C0.596355 15.1792 0.596355 16.3995 1.48437 16.6206L1.73976 16.6841V17.5337V18.3832L1.48437 18.4468C0.596355 18.6678 0.596355 19.8882 1.48437 20.1092L1.73976 20.1728V21.0224V21.8719L1.48437 21.9355C0.596355 22.1565 0.596355 23.3769 1.48437 23.5979L1.73976 23.6615V24.6744C1.73976 25.7745 1.79371 26.0899 2.06826 26.594C2.27749 26.9783 2.78623 27.4609 3.19661 27.6645C3.91312 28.0199 3.29561 27.9997 13.455 27.9997C21.5544 27.9997 22.7276 27.9895 23.0298 27.9162C24.0401 27.6713 24.8183 26.9448 25.0829 25.9995C25.215 25.5275 25.215 2.56247 25.0829 2.09046C24.8183 1.1452 24.0401 0.418679 23.0298 0.173764C22.5248 0.0513874 4.34477 0.0538949 3.85507 0.176489ZM22.8632 1.9743C22.9522 2.03612 23.0793 2.1544 23.1458 2.23721L23.2665 2.38776V14.045V25.7022L23.1458 25.8528C23.0793 25.9356 22.9522 26.0539 22.8632 26.1157L22.7015 26.2281H13.455H4.20858L4.04679 26.1157C3.65937 25.8465 3.64519 25.7984 3.62545 24.6829L3.60735 23.6632L3.8662 23.5987C4.75738 23.3769 4.7599 22.157 3.8696 21.9355L3.6142 21.8719V21.0224V20.1728L3.8696 20.1092C4.75761 19.8882 4.75761 18.6678 3.8696 18.4468L3.6142 18.3832V17.5337V16.6841L3.8696 16.6206C4.75761 16.3995 4.75761 15.1792 3.8696 14.9581L3.6142 14.8946V14.045V13.1955L3.8696 13.1319C4.75761 12.9109 4.75761 11.6905 3.8696 11.4694L3.6142 11.4059V10.5563V9.70678L3.8696 9.64322C4.75761 9.42218 4.75761 8.2018 3.8696 7.98076L3.6142 7.9172V7.06766V6.21811L3.8696 6.15455C4.17701 6.07802 4.46983 5.79276 4.52577 5.51525C4.61914 5.05202 4.33428 4.60776 3.8696 4.49209L3.6142 4.42853V3.48948C3.6142 2.51597 3.64718 2.33669 3.86708 2.1139C4.15334 1.8238 3.65257 1.83748 13.524 1.85013C22.6921 1.8619 22.7016 1.86201 22.8632 1.9743ZM6.97941 3.6553C6.74394 3.75124 6.49762 4.02951 6.45451 4.24832C6.43547 4.34491 6.42786 5.2868 6.43752 6.34147C6.45445 8.17973 6.46013 8.26531 6.57594 8.40949C6.64236 8.49224 6.76947 8.61052 6.85845 8.67234C7.01971 8.78436 7.04261 8.78474 13.9236 8.78474C20.8046 8.78474 20.8275 8.78436 20.9888 8.67234C21.0778 8.61052 21.2049 8.49224 21.2713 8.40943C21.3884 8.26362 21.3921 8.1945 21.3921 6.19549C21.3921 4.19648 21.3884 4.12736 21.2713 3.98154C21.2049 3.89874 21.0778 3.78045 20.9888 3.71864C20.8278 3.60678 20.7941 3.60618 13.9926 3.59441C8.40006 3.58471 7.12562 3.59577 6.97941 3.6553ZM19.547 6.19549V7.06766H13.9236H8.30031V6.19549V5.32332H13.9236H19.547V6.19549ZM13.1097 10.6406C11.9031 10.8842 10.8304 11.7771 10.3788 12.9139C10.2818 13.1581 10.2638 13.1728 10.0619 13.1728C9.94425 13.1728 9.69694 13.2094 9.51242 13.2542C8.00567 13.6194 7.07062 15.0485 7.45048 16.4057C7.65163 17.1245 8.18755 17.7642 8.86065 18.0889L9.23407 18.2691L9.25047 20.6775C9.26629 23.0126 9.2705 23.0905 9.3876 23.2364C9.45402 23.3191 9.58113 23.4374 9.67011 23.4992C9.82991 23.6102 9.88233 23.6116 13.9236 23.6116C17.9649 23.6116 18.0173 23.6102 18.1771 23.4992C18.2661 23.4374 18.3932 23.3191 18.4597 23.2364C18.5768 23.0905 18.581 23.0126 18.5968 20.6775L18.6132 18.2691L18.9866 18.0889C19.7218 17.7342 20.2975 16.987 20.4425 16.1997C20.6806 14.9057 19.7432 13.5955 18.3348 13.2542C18.1503 13.2094 17.9027 13.1728 17.7845 13.1728C17.5747 13.1728 17.5664 13.1649 17.4333 12.8336C16.7843 11.2186 14.9229 10.2746 13.1097 10.6406ZM14.7296 12.4848C15.1564 12.6861 15.3463 12.8559 15.5579 13.2254C15.7181 13.505 15.7543 13.6391 15.792 14.0925C15.8274 14.5175 15.864 14.6647 15.9684 14.8011C16.2421 15.1588 16.7141 15.2421 17.2487 15.0271C17.7409 14.8291 18.1442 14.9266 18.4597 15.3197C18.629 15.5308 18.629 16.0479 18.4597 16.259C18.2573 16.5112 18.064 16.61 17.6725 16.6615C17.2811 16.713 17.0879 16.8118 16.8854 17.0639C16.7751 17.2012 16.763 17.3039 16.7464 18.2461L16.7282 19.278H13.9236H11.1191L11.1009 18.2461C11.0843 17.3039 11.0722 17.2012 10.9619 17.0639C10.7594 16.8118 10.5662 16.713 10.1747 16.6615C9.78322 16.61 9.58992 16.5112 9.3876 16.259C9.21826 16.0479 9.21826 15.5308 9.3876 15.3197C9.70303 14.9266 10.1063 14.8291 10.5985 15.0271C11.1332 15.2421 11.6051 15.1588 11.8788 14.8011C11.9829 14.6651 12.0198 14.5177 12.0546 14.1001C12.0856 13.7286 12.1388 13.4917 12.2336 13.3039C12.4645 12.8465 12.9438 12.4802 13.4843 12.348C13.8035 12.2699 14.4168 12.3373 14.7296 12.4848ZM16.7353 21.4584V21.8945H13.9236H11.112V21.4584V21.0224H13.9236H16.7353V21.4584Z" fill="#486140"/>
</svg>
