<svg width="30" height="28" viewBox="0 0 30 28" fill="none" xmlns="http://www.w3.org/2000/svg">
<path d="M15.1133 17.0703L19.4889 6.63623L23.8645 8.99232L27.2303 7.98257L28.9132 10.0021L23.8645 13.0313L20.8352 11.685L19.4889 15.3874L21.845 16.7337L23.5279 17.7435V26.4947H20.8352L20.162 19.763L15.1133 17.0703Z" fill="#9EC06A"/>
<path fill-rule="evenodd" clip-rule="evenodd" d="M21.2562 0.323978C19.9778 0.599524 18.8936 1.69424 18.6231 2.98279C18.5763 3.20561 18.5376 3.54655 18.537 3.74038C18.5359 4.14348 18.7038 4.85906 18.8809 5.20631L19.0014 5.4425H16.9263C15.5588 5.4425 14.7345 5.46588 14.5089 5.51103C14.1531 5.58227 10.8456 7.18496 10.1941 7.60178C9.2559 8.20207 8.80135 9.33718 9.07631 10.3929C9.40024 11.6365 10.5517 12.4793 11.7719 12.3659C12.3044 12.3164 12.6478 12.1787 14.2962 11.3536C15.6231 10.6894 15.7181 10.6513 16.0469 10.6513C16.2381 10.6513 16.3946 10.6708 16.3946 10.6945C16.3946 10.7183 15.6212 12.6716 14.676 15.0352L12.9573 19.3327H11.3271C10.4304 19.3327 9.55668 19.3592 9.38537 19.3917C8.30993 19.5957 7.47837 20.4573 7.29623 21.5564C7.07498 22.8918 8.02657 24.2247 9.38537 24.4824C9.88756 24.5776 14.9637 24.5589 15.3334 24.4605C16.0372 24.2732 16.6507 23.8078 16.9587 23.2279C17.0964 22.9686 17.8247 21.2063 18.2499 20.1037L18.2985 19.9776L18.8513 20.1597L19.4042 20.3418V22.9546C19.4042 24.4898 19.4285 25.6959 19.4633 25.8789C19.7209 27.2377 21.0538 28.1893 22.3893 27.9681C23.4883 27.7859 24.3499 26.9544 24.5539 25.8789C24.6383 25.4341 24.6333 18.3354 24.5484 17.932C24.3926 17.1921 23.8977 16.5346 23.2399 16.1936C23.0242 16.0818 22.2748 15.8012 21.5745 15.57C20.8742 15.3389 20.2902 15.1401 20.2768 15.1284C20.2633 15.1166 20.4698 14.5601 20.7356 13.8916L21.219 12.6762L21.715 13.1609C22.2905 13.7231 22.7351 13.9742 23.3377 14.0776C24.0916 14.2068 24.3396 14.1293 26.3492 13.1364C27.3201 12.6566 28.2911 12.1582 28.5071 12.0286C29.4458 11.4656 29.9457 10.431 29.7761 9.40206C29.5538 8.0531 28.3418 7.07917 27.0365 7.20047C26.5445 7.2462 26.1467 7.39424 25.0817 7.92809L24.2482 8.34583L23.6203 7.71985C23.275 7.37561 22.9925 7.07917 22.9925 7.06117C22.9925 7.04317 23.0901 6.99409 23.2095 6.95219C23.8704 6.72011 24.598 6.11872 24.9588 5.50634C25.7976 4.08231 25.596 2.42168 24.4446 1.27019C23.5828 0.408419 22.4391 0.0689781 21.2562 0.323978ZM22.7152 2.13022C23.0533 2.27977 23.4321 2.65764 23.5903 3.0031C23.7614 3.37686 23.7614 4.0356 23.5903 4.40936C23.4328 4.75332 23.0557 5.13049 22.7117 5.28797C22.3379 5.45911 21.6792 5.45911 21.3054 5.28797C20.562 4.94761 20.1401 4.09348 20.3282 3.30938C20.5786 2.26542 21.7324 1.69546 22.7152 2.13022ZM17.7836 7.22137C17.7836 7.24481 17.6357 7.63547 17.455 8.0895L17.1262 8.91504H16.2137H15.3011L13.5549 9.78318C12.329 10.3927 11.7497 10.6513 11.6107 10.6513C11.3053 10.6513 10.9735 10.4529 10.8393 10.1898C10.6887 9.89447 10.6931 9.63715 10.854 9.34911C10.9757 9.13109 11.0956 9.06112 12.9112 8.14819L14.8392 7.17877H16.3114C17.1211 7.17877 17.7836 7.19793 17.7836 7.22137ZM20.6369 7.27212C20.7388 7.32346 21.4472 7.98463 22.2111 8.74141C22.9751 9.4982 23.657 10.1463 23.7265 10.1818C24.0387 10.3408 24.2704 10.2688 25.6597 9.58061C26.5752 9.12715 27.066 8.91504 27.1995 8.91504C27.5032 8.91504 27.8351 9.11413 27.969 9.37654C28.1197 9.67188 28.1152 9.92919 27.9544 10.2172C27.8335 10.4336 27.7113 10.5064 26.0888 11.3296C25.1339 11.814 24.2168 12.2547 24.051 12.3089C23.5295 12.479 23.4057 12.4088 22.2983 11.3159C21.2589 10.2901 21.1144 10.2 20.6919 10.3141C20.2702 10.428 20.2221 10.5169 19.2041 13.0617C18.587 14.6042 18.2467 15.5291 18.2467 15.6633C18.2467 15.9508 18.3979 16.2426 18.6145 16.3728C18.7146 16.433 19.5983 16.7485 20.5783 17.0738C22.4506 17.6954 22.6448 17.7901 22.7978 18.1561C22.8616 18.3088 22.8767 19.0388 22.8767 21.9665C22.8767 25.4817 22.8733 25.5945 22.7602 25.8162C22.6292 26.073 22.2957 26.2777 22.0086 26.2777C21.7214 26.2777 21.388 26.073 21.2569 25.8162C21.1447 25.5962 21.1404 25.4802 21.1404 22.6411C21.1404 21.0204 21.1238 19.611 21.1033 19.509C21.083 19.4071 20.9853 19.2385 20.8863 19.1344C20.7275 18.9673 20.4655 18.8652 18.6518 18.2628C17.5218 17.8874 16.4999 17.5315 16.3809 17.4718C16.1373 17.3496 15.9316 17.0103 15.9316 16.7307C15.9316 16.5733 19.2494 8.17203 19.5245 7.63275C19.7246 7.2407 20.2418 7.07297 20.6369 7.27212ZM0.638626 10.7706C0.394275 10.8997 0.189453 11.2411 0.189453 11.5194C0.189453 11.8066 0.394159 12.14 0.650953 12.2711C0.866656 12.3811 0.989179 12.3876 2.85173 12.3876C4.71429 12.3876 4.83681 12.3811 5.05251 12.2711C5.30931 12.14 5.51401 11.8066 5.51401 11.5194C5.51401 11.2323 5.30931 10.8988 5.05251 10.7678C4.8364 10.6576 4.71712 10.6514 2.83958 10.6539C0.978182 10.6563 0.841596 10.6635 0.638626 10.7706ZM0.638626 14.2432C0.394275 14.3722 0.189453 14.7137 0.189453 14.992C0.189453 15.2792 0.394159 15.6126 0.650953 15.7436C0.87418 15.8575 0.983391 15.8601 5.45614 15.8601C9.92888 15.8601 10.0381 15.8575 10.2613 15.7436C10.5181 15.6126 10.7228 15.2792 10.7228 14.992C10.7228 14.7048 10.5181 14.3714 10.2613 14.2404C10.038 14.1264 9.93154 14.1239 5.44398 14.1264C0.98941 14.1289 0.848657 14.1323 0.638626 14.2432ZM0.638626 17.7157C0.394275 17.8447 0.189453 18.1862 0.189453 18.4645C0.189453 18.7517 0.394159 19.0851 0.650953 19.2162C0.870649 19.3283 0.987211 19.3327 3.71987 19.3327C6.45252 19.3327 6.56908 19.3283 6.78878 19.2162C7.04557 19.0851 7.25028 18.7517 7.25028 18.4645C7.25028 18.1773 7.04557 17.8439 6.78878 17.7129C6.5688 17.6007 6.45524 17.5965 3.70771 17.5989C0.981886 17.6014 0.845416 17.6066 0.638626 17.7157ZM15.6422 19.0363C15.8173 19.1279 16.1103 19.2498 16.2934 19.3073C16.4764 19.3647 16.6261 19.4327 16.6261 19.4584C16.6261 19.5272 15.5969 22.0908 15.4673 22.3447C15.3927 22.491 15.275 22.6011 15.105 22.6834C14.8606 22.8017 14.7782 22.8052 12.2649 22.8052C9.78489 22.8052 9.66688 22.8003 9.44805 22.6887C9.19126 22.5577 8.98655 22.2242 8.98655 21.9371C8.98655 21.6499 9.19126 21.3165 9.44805 21.1854C9.66393 21.0753 9.78622 21.0689 11.6773 21.0689C13.8884 21.0689 13.9516 21.06 14.208 20.7133C14.287 20.6065 14.515 20.1078 14.7147 19.6053C15.072 18.7059 15.0797 18.6928 15.2008 18.7805C15.2685 18.8295 15.4672 18.9447 15.6422 19.0363Z" fill="#486140"/>
</svg>
