<svg width="36" height="36" viewBox="0 0 36 36" fill="none" xmlns="http://www.w3.org/2000/svg">
<path d="M30.375 0H5.625C2.5184 0 0 2.5184 0 5.625V30.375C0 33.4816 2.5184 36 5.625 36H30.375C33.4816 36 36 33.4816 36 30.375V5.625C36 2.5184 33.4816 0 30.375 0Z" fill="#1DA1F2"/>
<path d="M29.25 11.1094C28.4062 11.5312 27.5625 11.6719 26.5781 11.8125C27.5625 11.25 28.2656 10.4062 28.5469 9.28125C27.7031 9.84375 26.7188 10.125 25.5938 10.4062C24.75 9.5625 23.4844 9 22.2188 9C19.2656 9 17.0156 11.8125 17.7188 14.625C13.9219 14.4844 10.5469 12.6563 8.15625 9.84375C6.89063 11.9531 7.59375 14.625 9.5625 16.0312C8.85938 16.0312 8.15625 15.75 7.45312 15.4688C7.45312 17.5781 9 19.5469 11.1094 20.1094C10.4063 20.25 9.70313 20.3906 9 20.25C9.5625 22.0781 11.25 23.4844 13.3594 23.4844C11.6719 24.75 9.14062 25.4531 6.75 25.1719C8.85938 26.4375 11.25 27.2812 13.7812 27.2812C22.3594 27.2812 27.1406 20.1094 26.8594 13.5C27.8437 12.9375 28.6875 12.0938 29.25 11.1094Z" fill="white"/>
</svg>
