<svg width="36" height="36" viewBox="0 0 36 36" fill="none" xmlns="http://www.w3.org/2000/svg">
<path d="M30.375 0H5.625C2.5184 0 0 2.5184 0 5.625V30.375C0 33.4816 2.5184 36 5.625 36H30.375C33.4816 36 36 33.4816 36 30.375V5.625C36 2.5184 33.4816 0 30.375 0Z" fill="#25D366"/>
<path fill-rule="evenodd" clip-rule="evenodd" d="M24.8906 10.9863C23.0449 9.14063 20.584 8.15625 18 8.15625C12.5859 8.15625 8.15625 12.5859 8.15625 18C8.15625 19.7227 8.64845 21.4453 9.50977 22.9219L8.15625 27.8438L13.3242 26.4902C14.8008 27.2285 16.4004 27.7207 18 27.7207C23.4141 27.7207 27.8438 23.291 27.8438 17.877C27.8438 15.293 26.7363 12.832 24.8906 10.9863ZM18 26.1211C16.5234 26.1211 15.0469 25.752 13.8164 25.0137L13.5703 24.8906L10.4941 25.752L11.3555 22.7988L11.1094 22.4297C10.248 21.0762 9.8789 19.5996 9.8789 18.123C9.8789 13.6934 13.5703 10.002 18 10.002C20.2148 10.002 22.1836 10.8633 23.7832 12.3398C25.3828 13.9395 26.1211 15.9082 26.1211 18.123C26.1211 22.4297 22.5527 26.1211 18 26.1211ZM22.4297 19.9688C22.1836 19.8457 20.9531 19.2305 20.707 19.2305C20.461 19.1074 20.3379 19.1074 20.2148 19.3535C20.0918 19.5996 19.5996 20.0918 19.4766 20.3379C19.3535 20.4609 19.2305 20.4609 18.9844 20.4609C18.7383 20.3379 18 20.0918 17.0156 19.2305C16.2774 18.6152 15.7852 17.7539 15.6621 17.5078C15.5391 17.2617 15.6621 17.1387 15.7852 17.0156C15.9082 16.8926 16.0312 16.7695 16.1543 16.6465C16.2773 16.5234 16.2774 16.4004 16.4004 16.2773C16.5235 16.1543 16.4004 16.0312 16.4004 15.9082C16.4004 15.7852 15.9082 14.5547 15.6621 14.0625C15.5391 13.6934 15.293 13.6934 15.1699 13.6934C15.0469 13.6934 14.9238 13.6934 14.6777 13.6934C14.5547 13.6934 14.3086 13.6934 14.0625 13.9395C13.8164 14.1855 13.2012 14.8008 13.2012 16.0312C13.2012 17.2617 14.0625 18.3691 14.1855 18.6152C14.3086 18.7383 15.9082 21.3223 18.3691 22.3066C20.4609 23.168 20.8301 22.9219 21.3223 22.9219C21.8145 22.9219 22.7988 22.3066 22.9219 21.8145C23.168 21.1992 23.168 20.707 23.0449 20.707C22.9219 20.0918 22.6758 20.0918 22.4297 19.9688Z" fill="white"/>
</svg>
