<svg width="25" height="24" viewBox="0 0 25 24" fill="none" xmlns="http://www.w3.org/2000/svg">
<g clip-path="url(#clip0_9350_42609)">
<path d="M24.5 12C24.5 5.57812 19.2969 0.375 12.875 0.375C6.45312 0.375 1.25 5.57812 1.25 12C1.25 17.8022 5.50109 22.6116 11.0586 23.4844V15.3605H8.10547V12H11.0586V9.43875C11.0586 6.52547 12.793 4.91625 15.4494 4.91625C16.7216 4.91625 18.0519 5.14313 18.0519 5.14313V8.0025H16.5856C15.1419 8.0025 14.6914 8.89875 14.6914 9.81797V12H17.9155L17.3998 15.3605H14.6914V23.4844C20.2489 22.6116 24.5 17.8022 24.5 12Z" fill="black"/>
</g>
<defs>
<clipPath id="clip0_9350_42609">
<rect width="24" height="24" fill="white" transform="translate(0.875)"/>
</clipPath>
</defs>
</svg>
