<svg width="25" height="24" viewBox="0 0 25 24" fill="none" xmlns="http://www.w3.org/2000/svg">
<path d="M18.125 15C17.0653 15 16.0912 15.3665 15.3223 15.9795L10.5183 12.9769C10.6606 12.3334 10.6606 11.6666 10.5183 11.023L15.3223 8.0205C16.0912 8.63348 17.0653 9 18.125 9C20.6103 9 22.625 6.98527 22.625 4.5C22.625 2.01473 20.6103 0 18.125 0C15.6397 0 13.625 2.01473 13.625 4.5C13.625 4.83553 13.662 5.16234 13.7317 5.47692L8.92766 8.47945C8.15877 7.86652 7.18475 7.5 6.125 7.5C3.63973 7.5 1.625 9.51473 1.625 12C1.625 14.4853 3.63973 16.5 6.125 16.5C7.18475 16.5 8.15877 16.1335 8.92766 15.5205L13.7317 18.5231C13.6607 18.8439 13.6249 19.1714 13.625 19.5C13.625 21.9853 15.6397 24 18.125 24C20.6103 24 22.625 21.9853 22.625 19.5C22.625 17.0147 20.6103 15 18.125 15Z" fill="black"/>
</svg>
