<svg width="25" height="24" viewBox="0 0 25 24" fill="none" xmlns="http://www.w3.org/2000/svg">
<g clip-path="url(#clip0_9350_42613)">
<path d="M22.158 7.11175C22.1732 7.32494 22.1732 7.53817 22.1732 7.75136C22.1732 14.2539 17.224 21.7463 8.1783 21.7463C5.39148 21.7463 2.80267 20.9391 0.625 19.5382C1.02095 19.5838 1.40162 19.5991 1.81281 19.5991C4.11227 19.5991 6.22905 18.8224 7.91941 17.4976C5.75697 17.4519 3.94478 16.0356 3.32041 14.0864C3.625 14.132 3.92955 14.1625 4.24937 14.1625C4.69098 14.1625 5.13264 14.1016 5.54378 13.995C3.28998 13.5381 1.59958 11.5585 1.59958 9.16759V9.1067C2.25437 9.47219 3.01586 9.70061 3.82291 9.73103C2.49803 8.84777 1.63005 7.34017 1.63005 5.63458C1.63005 4.72089 1.87366 3.88333 2.30008 3.15236C4.72141 6.13713 8.36102 8.08633 12.4422 8.29956C12.3661 7.93408 12.3204 7.55341 12.3204 7.17269C12.3204 4.462 14.5133 2.25391 17.2391 2.25391C18.6554 2.25391 19.9345 2.84781 20.833 3.8072C21.9447 3.59402 23.0107 3.18283 23.9549 2.61939C23.5893 3.76155 22.8127 4.72094 21.7924 5.33003C22.7823 5.22348 23.7417 4.94931 24.6249 4.56864C23.955 5.54322 23.1174 6.4112 22.158 7.11175Z" fill="black"/>
</g>
<defs>
<clipPath id="clip0_9350_42613">
<rect width="24" height="24" fill="white" transform="translate(0.625)"/>
</clipPath>
</defs>
</svg>
