<svg width="25" height="24" viewBox="0 0 25 24" fill="none" xmlns="http://www.w3.org/2000/svg">
<path d="M20.8674 3.5136C18.6042 1.2492 15.5946 0.0012 12.3882 0C5.781 0 0.4038 5.3748 0.4014 11.982C0.4002 14.094 0.9522 16.1556 2.001 17.9724L0.375 24L6.6546 22.5156C8.4054 23.4708 10.3758 23.9736 12.3822 23.9748H12.387C18.993 23.9748 24.3702 18.5988 24.3738 11.9928C24.3762 8.79 23.1306 5.7792 20.8674 3.5136ZM18.2526 16.2648C18.003 16.9644 16.7802 17.6388 16.2306 17.688C15.681 17.7384 15.1662 17.9364 12.6366 16.9392C9.5922 15.7392 7.6698 12.618 7.521 12.4188C7.371 12.2184 6.2982 10.7952 6.2982 9.3216C6.2982 7.848 7.0722 7.1232 7.347 6.8244C7.6218 6.5244 7.9458 6.45 8.1462 6.45C8.3454 6.45 8.5458 6.45 8.7198 6.4572C8.9334 6.4656 9.1698 6.4764 9.3942 6.9744C9.6606 7.5672 10.2426 9.048 10.317 9.198C10.3914 9.348 10.4418 9.5232 10.3422 9.7224C10.2426 9.9216 10.1922 10.0464 10.0434 10.2216C9.8934 10.3968 9.729 10.6116 9.5946 10.746C9.4446 10.8948 9.2886 11.058 9.4626 11.3568C9.6378 11.6568 10.2378 12.6372 11.1282 13.4304C12.273 14.4504 13.2366 14.766 13.5366 14.9172C13.8366 15.0672 14.0106 15.042 14.1858 14.8416C14.361 14.6424 14.9346 13.968 15.1338 13.668C15.333 13.368 15.5334 13.4184 15.8082 13.518C16.083 13.6176 17.5554 14.3424 17.8542 14.4924C18.1542 14.6424 18.3534 14.7168 18.4278 14.8416C18.5022 14.9652 18.5022 15.5652 18.2526 16.2648Z" fill="black"/>
</svg>
