<svg width="25" height="24" viewBox="0 0 25 24" fill="none" xmlns="http://www.w3.org/2000/svg">
<path d="M10.3654 2.88635C11.5358 1.70735 13.4465 1.70735 14.6269 2.87735L15.3572 3.60635C15.6373 3.88635 16.0174 4.04735 16.4176 4.04735H17.4479C19.1085 4.04735 20.459 5.39636 20.459 7.05635V8.08735C20.459 8.48635 20.6191 8.86635 20.8992 9.14635L21.6194 9.86635C22.1897 10.4264 22.4998 11.1864 22.4998 11.9864C22.5098 12.7864 22.1997 13.5474 21.6395 14.1164L20.8992 14.8564C20.6191 15.1364 20.459 15.5164 20.459 15.9174V16.9464C20.459 18.6064 19.1085 19.9574 17.4479 19.9574H16.4176C16.0174 19.9574 15.6373 20.1164 15.3572 20.3964L14.6369 21.1164C14.0467 21.7074 13.2764 21.9964 12.5061 21.9964C11.7359 21.9964 10.9656 21.7074 10.3754 21.1274L9.64511 20.3964C9.365 20.1164 8.98487 19.9574 8.58472 19.9574H7.55435C5.89375 19.9574 4.54326 18.6064 4.54326 16.9464V15.9174C4.54326 15.5164 4.3832 15.1364 4.1031 14.8464L3.38284 14.1364C2.21241 12.9674 2.20241 11.0564 3.37283 9.87735L4.1031 9.14635C4.3832 8.86635 4.54326 8.48635 4.54326 8.07635V7.05635C4.54326 5.39636 5.89375 4.04735 7.55435 4.04735H8.58472C8.98487 4.04735 9.365 3.88635 9.64511 3.60635L10.3654 2.88635ZM15.0771 13.6964C14.5869 13.6964 14.1968 14.0874 14.1968 14.5664C14.1968 15.0564 14.5869 15.4464 15.0771 15.4464C15.5572 15.4464 15.9474 15.0564 15.9474 14.5664C15.9474 14.0874 15.5572 13.6964 15.0771 13.6964ZM15.6873 8.80635C15.3472 8.46735 14.797 8.46735 14.4569 8.80635L9.31499 13.9464C8.97486 14.2864 8.97486 14.8464 9.31499 15.1864C9.47504 15.3564 9.69512 15.4464 9.92521 15.4464C10.1653 15.4464 10.3854 15.3564 10.5454 15.1864L15.6873 10.0474C16.0274 9.70735 16.0274 9.14636 15.6873 8.80635ZM9.93521 8.55635C9.45504 8.55635 9.05489 8.94635 9.05489 9.42635C9.05489 9.91736 9.45504 10.3064 9.93521 10.3064C10.4154 10.3064 10.8055 9.91736 10.8055 9.42635C10.8055 8.94635 10.4154 8.55635 9.93521 8.55635Z" fill="#265329"/>
</svg>
