<svg width="24" height="24" viewBox="0 0 24 24" fill="none" xmlns="http://www.w3.org/2000/svg">
<path d="M16.5 15.3749C15.9986 15.3748 15.5036 15.4867 15.0511 15.7024C14.5985 15.9182 14.1999 16.2323 13.8843 16.6218L9.0187 13.4999C9.25283 13.0345 9.37478 12.5208 9.37478 11.9999C9.37478 11.479 9.25283 10.9653 9.0187 10.4999L13.8843 7.37802C14.4332 8.05652 15.2211 8.49896 16.0862 8.61437C16.9512 8.72978 17.8276 8.50939 18.5351 7.99852C19.2427 7.48764 19.7276 6.7251 19.8902 5.86768C20.0528 5.01026 19.8807 4.12313 19.4094 3.38868C18.938 2.65422 18.2032 2.12827 17.3559 1.91895C16.5087 1.70964 15.6135 1.83287 14.8543 2.26331C14.0952 2.69375 13.5297 3.39868 13.2744 4.23318C13.019 5.06767 13.093 5.9683 13.4812 6.7499L8.61558 9.87177C8.17597 9.33066 7.57956 8.93896 6.90833 8.75052C6.23709 8.56208 5.52397 8.58613 4.86697 8.81938C4.20996 9.05263 3.6413 9.48362 3.23915 10.0531C2.837 10.6226 2.62109 11.3027 2.62109 11.9999C2.62109 12.6971 2.837 13.3772 3.23915 13.9467C3.6413 14.5162 4.20996 14.9472 4.86697 15.1804C5.52397 15.4137 6.23709 15.4377 6.90833 15.2493C7.57956 15.0608 8.17597 14.6691 8.61558 14.128L13.4812 17.2499C13.155 17.9075 13.052 18.6535 13.1879 19.3748C13.3238 20.0962 13.6912 20.7535 14.2344 21.2473C14.7776 21.741 15.4669 22.0442 16.1979 22.1109C16.9289 22.1776 17.6617 22.0042 18.2853 21.6169C18.9088 21.2296 19.3891 20.6495 19.6533 19.9647C19.9176 19.2799 19.9513 18.5275 19.7494 17.8218C19.5476 17.116 19.1211 16.4954 18.5347 16.0538C17.9484 15.6122 17.234 15.3739 16.5 15.3749ZM16.5 2.6249C17.0191 2.6249 17.5266 2.77885 17.9583 3.06729C18.39 3.35573 18.7265 3.7657 18.9251 4.24535C19.1238 4.72501 19.1758 5.25281 19.0745 5.76201C18.9732 6.27121 18.7232 6.73894 18.3561 7.10605C17.989 7.47316 17.5213 7.72317 17.0121 7.82446C16.5029 7.92574 15.9751 7.87376 15.4954 7.67508C15.0158 7.4764 14.6058 7.13995 14.3173 6.70827C14.0289 6.27659 13.875 5.76907 13.875 5.2499C13.8774 4.55446 14.1548 3.88822 14.6465 3.39647C15.1383 2.90472 15.8045 2.62737 16.5 2.6249ZM5.99995 14.6249C5.48078 14.6249 4.97326 14.4709 4.54158 14.1825C4.1099 13.8941 3.77345 13.4841 3.57477 13.0044C3.37609 12.5248 3.32411 11.997 3.42539 11.4878C3.52668 10.9786 3.77669 10.5109 4.1438 10.1437C4.51091 9.77663 4.97864 9.52662 5.48784 9.42533C5.99704 9.32405 6.52484 9.37603 7.0045 9.57471C7.48415 9.77339 7.89412 10.1098 8.18256 10.5415C8.471 10.9732 8.62495 11.4807 8.62495 11.9999C8.62248 12.6953 8.34513 13.3616 7.85338 13.8533C7.36163 14.3451 6.69539 14.6224 5.99995 14.6249ZM16.5 21.3749C15.9808 21.3749 15.4733 21.2209 15.0416 20.9325C14.6099 20.6441 14.2734 20.2341 14.0748 19.7544C13.8761 19.2748 13.8241 18.747 13.9254 18.2378C14.0267 17.7286 14.2767 17.2609 14.6438 16.8937C15.0109 16.5266 15.4786 16.2766 15.9878 16.1753C16.497 16.074 17.0248 16.126 17.5045 16.3247C17.9841 16.5234 18.3941 16.8598 18.6826 17.2915C18.971 17.7232 19.1249 18.2307 19.1249 18.7499C19.1225 19.4453 18.8451 20.1116 18.3534 20.6033C17.8616 21.0951 17.1954 21.3724 16.5 21.3749Z" fill="black"/>
</svg>
