<svg width="43" height="42" viewBox="0 0 43 42" fill="none" xmlns="http://www.w3.org/2000/svg">
<circle cx="21.5" cy="21.5" r="20" fill="#D1DB95"/>
<g clip-path="url(#clip0_8427_35902)">
<path d="M33.6671 11.856C25.5554 11.2166 17.4436 11.2166 9.33192 11.856C8.12082 11.9514 7.15323 12.8985 7.02228 14.1063C6.31028 20.672 6.31028 27.2376 7.02228 33.8033C7.15323 35.0111 8.12088 35.9581 9.33192 36.0536C17.4436 36.6929 25.5554 36.6929 33.6671 36.0536C34.8782 35.9581 35.8458 35.0111 35.9768 33.8033C36.6888 27.2376 36.6888 20.672 35.9768 14.1063C35.8458 12.8985 34.8782 11.9514 33.6671 11.856Z" fill="#A9CC70"/>
<path d="M9.86006 36.0938C9.68355 36.0811 9.50766 36.0677 9.3317 36.0538C8.12072 35.9585 7.15295 35.0111 7.02219 33.8033C6.31031 27.2379 6.31031 20.6718 7.02219 14.1064C7.15301 12.8986 8.12078 11.9518 9.3317 11.8559C9.50759 11.8419 9.68348 11.8286 9.86006 11.8159C9.24663 12.2395 8.82247 12.9183 8.73734 13.7032C7.99627 20.5379 7.99627 27.3719 8.73734 34.2066C8.82241 34.9914 9.24663 35.6702 9.86006 36.0938Z" fill="#D2FD8D"/>
<path d="M29.666 23.5613C27.1203 25.8118 24.1611 27.7314 21.4984 28.5265C17.9754 27.4749 13.9354 24.4554 11.0181 21.3045C8.53718 18.6247 6.86897 15.849 7.02136 14.1066C7.15218 12.8988 8.11996 11.9519 9.33094 11.8561C17.4426 11.2173 25.5543 11.2173 33.666 11.8561C34.8769 11.9519 35.8447 12.8988 35.9755 14.1066C36.1717 16.3494 33.3517 20.3024 29.666 23.5613Z" fill="#829D58"/>
<path d="M33.5009 13.9619C32.3128 17.2005 31.0345 20.4003 29.6674 23.5608C27.1216 25.8113 24.1624 27.7309 21.4998 28.526C17.9768 27.4744 13.9368 24.4549 11.0195 21.3039C12.9836 16.4467 15.1541 11.679 17.5316 7.00212C18.1425 5.80002 19.5249 5.19934 20.8178 5.58287C24.8521 6.77923 28.6812 8.44806 32.304 10.5887C33.4648 11.2746 33.9657 12.6964 33.5009 13.9619Z" fill="#F4DD45"/>
<path d="M30.3139 21.1113C30.5259 20.924 30.7349 20.7341 30.9406 20.5423C30.5253 21.5526 30.1005 22.5585 29.6674 23.5605C27.1216 25.811 24.1624 27.7306 21.4998 28.5257C17.9768 27.4741 13.9368 24.4546 11.0195 21.3037C11.3142 20.5747 11.6133 19.8482 11.918 19.123C14.8124 22.1756 18.7235 25.0547 22.1463 26.0765C24.8089 25.2815 27.7681 23.3618 30.3139 21.1113Z" fill="#EAB14D"/>
<path d="M20.2348 11.7386L21.6152 11.673C22.0103 11.6543 22.371 11.4423 22.5796 11.106L23.3081 9.93176C23.8334 9.08518 25.1014 9.20832 25.4539 10.1402L25.9428 11.4328C26.0828 11.8028 26.3959 12.0803 26.7801 12.1748L28.122 12.5048C29.0895 12.7427 29.3642 13.9867 28.5869 14.6099L27.5086 15.4743C27.2 15.7218 27.0329 16.1053 27.0617 16.4999L27.1625 17.8781C27.2352 18.8718 26.1369 19.5175 25.304 18.9707L24.1487 18.2124C23.818 17.9953 23.4016 17.9549 23.0352 18.1042L21.7556 18.626C20.8331 19.0022 19.8797 18.1572 20.1422 17.1961L20.5065 15.8631C20.6107 15.4814 20.5205 15.073 20.2653 14.7707L19.3736 13.7149C18.7307 12.9538 19.2397 11.7859 20.2348 11.7386Z" fill="#ED8734"/>
<path d="M36.4422 14.056C36.2877 12.6301 35.1452 11.5121 33.7217 11.3905C33.4486 10.9049 33.0489 10.4852 32.5417 10.1855C28.9025 8.03522 25.0026 6.33557 20.9503 5.13384C19.4582 4.69142 17.8514 5.37461 17.1298 6.75848C17.01 6.98806 17.0991 7.27121 17.3287 7.39091C17.5583 7.51061 17.8414 7.42154 17.9611 7.19202C18.4758 6.20512 19.6207 5.71751 20.6838 6.03273C24.6625 7.21264 28.4916 8.88142 32.0648 10.9927C33.0297 11.5628 33.4484 12.7438 33.0601 13.8008C31.8944 16.9784 30.6219 20.1663 29.2777 23.2787C26.6192 25.6143 23.8663 27.2979 21.4991 28.0362C18.4318 27.0788 14.6616 24.4834 11.5663 21.2027C13.2575 17.041 15.1216 12.8986 17.1102 8.88585C17.2252 8.6539 17.1303 8.37262 16.8983 8.25767C16.6663 8.14273 16.3851 8.23755 16.2701 8.46957C15.8477 9.32214 15.4311 10.1808 15.0202 11.0439C13.1087 11.124 11.1842 11.2396 9.29465 11.3886C7.8629 11.502 6.71117 12.6238 6.55609 14.0559C5.84328 20.6244 5.84328 27.2854 6.55609 33.8538C6.7113 35.2867 7.86315 36.4086 9.2949 36.5212C13.3426 36.8404 17.4202 37 21.4972 37C25.2574 37 29.0169 36.8642 32.7515 36.5925C33.0097 36.5737 33.2037 36.3491 33.185 36.0909C33.1662 35.8327 32.9421 35.6385 32.6835 35.6574C24.9469 36.2202 17.1027 36.1964 9.36853 35.5864C8.38888 35.5094 7.60025 34.7429 7.48949 33.7621C7.48949 33.762 7.48949 33.762 7.48949 33.7619C7.34329 32.0921 9.1817 29.0773 12.173 26.0816C12.356 25.8983 12.3557 25.6015 12.1725 25.4186C11.9893 25.2357 11.6925 25.2359 11.5096 25.4191C9.85457 27.0766 8.1568 29.1664 7.23809 31.0708C6.86712 26.3431 6.8665 21.5805 7.23672 16.8526C7.91884 18.2752 9.08825 19.9089 10.675 21.6228C13.2492 24.4032 17.4093 27.7948 21.3652 28.9756C21.409 28.9886 21.4541 28.9951 21.4993 28.9951C21.5445 28.9951 21.5897 28.9886 21.6334 28.9756C24.1813 28.2148 27.1445 26.4166 29.9774 23.9124C32.3282 21.8338 34.6432 19.1708 35.7614 16.8507C36.1318 21.579 36.1315 26.3421 35.7605 31.0704C34.8418 29.1661 33.1441 27.0765 31.4892 25.4191C31.3062 25.2359 31.0094 25.2357 30.8262 25.4186C30.643 25.6016 30.6428 25.8983 30.8257 26.0816C33.8158 29.0761 35.6538 32.0894 35.5094 33.7597C35.4311 34.4624 35.0083 35.0678 34.3771 35.3803C34.1451 35.4951 34.0501 35.7763 34.1649 36.0084C34.2467 36.1736 34.4127 36.2693 34.5854 36.2693C34.6553 36.2693 34.7262 36.2537 34.793 36.2206C35.7149 35.7643 36.3315 34.8794 36.4424 33.8539C37.1549 27.2854 37.1549 20.6244 36.4422 14.056ZM7.48874 14.1513C7.59781 13.1694 8.38738 12.401 9.36834 12.3233C11.0844 12.188 12.8297 12.0801 14.5676 12.0018C13.2649 14.7796 12.0259 17.6021 10.8663 20.4356C8.65159 17.917 7.36948 15.5467 7.48874 14.1513ZM30.9779 21.6729C32.0206 19.1783 33.0142 16.6479 33.9402 14.1239C34.1473 13.5602 34.19 12.9713 34.0893 12.4138C34.8487 12.6561 35.418 13.3288 35.5093 14.1518C35.6502 15.8038 33.8137 18.791 30.9779 21.6729Z" fill="black"/>
<path d="M27.8015 15.8407L28.8797 14.9763C29.3796 14.5756 29.6043 13.938 29.4662 13.3124C29.328 12.6868 28.8557 12.2031 28.2336 12.0501L26.8917 11.7201C26.6573 11.6625 26.4663 11.4933 26.381 11.2675L25.892 9.97496C25.6654 9.37572 25.1285 8.96499 24.4908 8.90305C23.853 8.84111 23.2472 9.14082 22.9095 9.68518L22.181 10.8595C22.0537 11.0646 21.8337 11.1939 21.5927 11.2054L20.2123 11.2709C19.5724 11.3013 19.0158 11.685 18.7599 12.2723C18.504 12.8596 18.6017 13.5285 19.0151 14.018L19.9068 15.0738C20.0626 15.2582 20.1176 15.5073 20.054 15.7402L19.6897 17.0732C19.5209 17.6912 19.7139 18.3391 20.1934 18.764C20.6728 19.1889 21.3392 19.3026 21.9324 19.0607L23.2121 18.5389C23.4356 18.4478 23.6895 18.4724 23.8913 18.6049L25.0466 19.3632C25.3263 19.5469 25.6443 19.6391 25.9629 19.6391C26.2544 19.6391 26.5464 19.5619 26.8102 19.4068C27.3625 19.0821 27.6766 18.4835 27.6299 17.8445L27.5291 16.4663C27.5112 16.2255 27.6132 15.9916 27.8015 15.8407ZM27.2151 15.1092C26.7859 15.4531 26.5537 15.986 26.5938 16.5347L26.6946 17.9129C26.7154 18.1976 26.581 18.4539 26.3349 18.5985C26.0889 18.7432 25.7995 18.736 25.5609 18.5794L24.4057 17.8211C24.1293 17.6397 23.8101 17.547 23.4888 17.547C23.2754 17.547 23.0612 17.5879 22.8579 17.6707L21.5783 18.1925C21.314 18.3003 21.0287 18.2516 20.8151 18.0623C20.6015 17.873 20.5189 17.5956 20.5941 17.3203L20.9583 15.9872C21.1032 15.4566 20.9779 14.889 20.623 14.4688L19.7313 13.413C19.5472 13.1949 19.5053 12.9086 19.6193 12.6469C19.7333 12.3853 19.9716 12.221 20.2567 12.2075L21.6371 12.1419C22.1865 12.1158 22.6876 11.8212 22.9776 11.3538L23.7061 10.1795C23.8565 9.93695 24.1158 9.80869 24.4001 9.83626C24.6842 9.86382 24.9141 10.0397 25.015 10.3067L25.5039 11.5992C25.6985 12.1137 26.1336 12.4992 26.6677 12.6306L28.0097 12.9606C28.2868 13.0288 28.489 13.2359 28.5506 13.5145C28.6122 13.7932 28.5159 14.0662 28.2932 14.2447L27.2151 15.1092Z" fill="black"/>
<path d="M14.5509 18.5995C14.4474 18.8368 14.556 19.1131 14.7933 19.2165L26.2795 24.2223C26.3405 24.2489 26.404 24.2615 26.4666 24.2615C26.6474 24.2615 26.8197 24.1562 26.8965 23.9799C27 23.7425 26.8914 23.4663 26.6541 23.3628L15.1679 18.357C14.9305 18.2536 14.6543 18.3621 14.5509 18.5995Z" fill="black"/>
<path d="M14.0879 20.3473C13.8505 20.2438 13.5742 20.3524 13.4708 20.5897C13.3674 20.8271 13.4759 21.1033 13.7133 21.2068L20.277 24.0673C20.338 24.0939 20.4015 24.1065 20.464 24.1065C20.6449 24.1065 20.8172 24.0012 20.894 23.8249C20.9975 23.5875 20.8889 23.3113 20.6516 23.2078L14.0879 20.3473Z" fill="black"/>
</g>
<defs>
<clipPath id="clip0_8427_35902">
<rect width="32" height="32" fill="white" transform="translate(5.5 5)"/>
</clipPath>
</defs>
</svg>
